<svg width="10" height="14" viewBox="0 0 10 14" fill="none" xmlns="http://www.w3.org/2000/svg">
<path d="M1.5 8.5C1.10218 8.5 0.720644 8.65804 0.43934 8.93934C0.158035 9.22064 0 9.60218 0 10V10.35C0 11.655 0.6 12.6 1.554 13.193C2.479 13.768 3.71 14 5 14C6.297 14 7.528 13.769 8.452 13.193C9.406 12.6 10 11.653 10 10.35V10C10 9.60218 9.84196 9.22064 9.56066 8.93934C9.27936 8.65804 8.89782 8.5 8.5 8.5H1.5Z" fill="url(#paint0_radial_117_3)"/>
<path d="M1.5 8.5C1.10218 8.5 0.720644 8.65804 0.43934 8.93934C0.158035 9.22064 0 9.60218 0 10V10.35C0 11.655 0.6 12.6 1.554 13.193C2.479 13.768 3.71 14 5 14C6.297 14 7.528 13.769 8.452 13.193C9.406 12.6 10 11.653 10 10.35V10C10 9.60218 9.84196 9.22064 9.56066 8.93934C9.27936 8.65804 8.89782 8.5 8.5 8.5H1.5Z" fill="url(#paint1_linear_117_3)"/>
<path d="M5.5 0.5C5.5 0.367392 5.44732 0.240215 5.35355 0.146447C5.25979 0.0526784 5.13261 0 5 0C4.86739 0 4.74021 0.0526784 4.64645 0.146447C4.55268 0.240215 4.5 0.367392 4.5 0.5V1.5H5.5V0.5Z" fill="url(#paint2_linear_117_3)"/>
<path d="M7.5 1C7.89782 1 8.27936 1.15804 8.56066 1.43934C8.84196 1.72064 9 2.10218 9 2.5V5.5C9 5.89782 8.84196 6.27936 8.56066 6.56066C8.27936 6.84196 7.89782 7 7.5 7H2.5C2.10218 7 1.72064 6.84196 1.43934 6.56066C1.15804 6.27936 1 5.89782 1 5.5V2.5C1 2.10218 1.15804 1.72064 1.43934 1.43934C1.72064 1.15804 2.10218 1 2.5 1H7.5Z" fill="url(#paint3_radial_117_3)"/>
<path d="M6.5 3.25C6.30109 3.25 6.11032 3.32902 5.96967 3.46967C5.82902 3.61032 5.75 3.80109 5.75 4C5.75 4.19891 5.82902 4.38968 5.96967 4.53033C6.11032 4.67098 6.30109 4.75 6.5 4.75C6.69891 4.75 6.88968 4.67098 7.03033 4.53033C7.17098 4.38968 7.25 4.19891 7.25 4C7.25 3.80109 7.17098 3.61032 7.03033 3.46967C6.88968 3.32902 6.69891 3.25 6.5 3.25Z" fill="url(#paint4_linear_117_3)"/>
<path d="M2.75 4C2.75 3.80109 2.82902 3.61032 2.96967 3.46967C3.11032 3.32902 3.30109 3.25 3.5 3.25C3.69891 3.25 3.88968 3.32902 4.03033 3.46967C4.17098 3.61032 4.25 3.80109 4.25 4C4.25 4.19891 4.17098 4.38968 4.03033 4.53033C3.88968 4.67098 3.69891 4.75 3.5 4.75C3.30109 4.75 3.11032 4.67098 2.96967 4.53033C2.82902 4.38968 2.75 4.19891 2.75 4Z" fill="url(#paint5_linear_117_3)"/>
<defs>
<radialGradient id="paint0_radial_117_3" cx="0" cy="0" r="1" gradientUnits="userSpaceOnUse" gradientTransform="translate(-2.308 6.807) rotate(32.84) scale(14.2768 23.736)">
<stop stop-color="#F08AF4"/>
<stop offset="0.535" stop-color="#9C6CFE"/>
<stop offset="1" stop-color="#4E44DB"/>
</radialGradient>
<linearGradient id="paint1_linear_117_3" x1="5" y1="7.845" x2="7.699" y2="17.014" gradientUnits="userSpaceOnUse">
<stop stop-color="#885EDB" stop-opacity="0"/>
<stop offset="1" stop-color="#E362F8"/>
</linearGradient>
<linearGradient id="paint2_linear_117_3" x1="4.477" y1="-6.29095e-09" x2="5.532" y2="1.229" gradientUnits="userSpaceOnUse">
<stop stop-color="#8B52F4"/>
<stop offset="1" stop-color="#3D35B1"/>
</linearGradient>
<radialGradient id="paint3_radial_117_3" cx="0" cy="0" r="1" gradientUnits="userSpaceOnUse" gradientTransform="translate(-0.779813 -1.83001) rotate(45) scale(13.4772 26.308)">
<stop stop-color="#F08AF4"/>
<stop offset="0.535" stop-color="#9C6CFE"/>
<stop offset="1" stop-color="#4E44DB"/>
</radialGradient>
<linearGradient id="paint4_linear_117_3" x1="6.106" y1="3.308" x2="7.243" y2="5.27" gradientUnits="userSpaceOnUse">
<stop stop-color="#FDFDFD"/>
<stop offset="1" stop-color="#F9DCFA"/>
</linearGradient>
<linearGradient id="paint5_linear_117_3" x1="3.106" y1="3.308" x2="4.243" y2="5.27" gradientUnits="userSpaceOnUse">
<stop stop-color="#FDFDFD"/>
<stop offset="1" stop-color="#F9DCFA"/>
</linearGradient>
</defs>
</svg>
